<?xml version="1.0" standalone="no"?>
<!DOCTYPE svg PUBLIC "-//W3C//DTD SVG 20010904//EN"
 "http://www.w3.org/TR/2001/REC-SVG-20010904/DTD/svg10.dtd">
<svg version="1.0" xmlns="http://www.w3.org/2000/svg"
 width="2048.000000pt" height="2048.000000pt" viewBox="0 0 2048.000000 2048.000000"
 preserveAspectRatio="xMidYMid meet">

<g transform="translate(0.000000,2048.000000) scale(0.100000,-0.100000)"
fill="#000000" stroke="none">
<path d="M9243 7358 c-2 -19 0 -20 8 -8 8 11 9 8 4 -13 -4 -20 -2 -27 6 -22 8
5 9 1 4 -15 -5 -15 -3 -20 3 -16 6 4 15 -2 21 -11 9 -16 10 -14 11 10 0 16 -4
26 -10 22 -5 -3 -14 13 -20 35 -12 44 -25 52 -27 18z"/>
<path d="M9220 7320 c0 -5 5 -10 11 -10 5 0 7 5 4 10 -3 6 -8 10 -11 10 -2 0
-4 -4 -4 -10z"/>
<path d="M9211 7267 c-8 -18 -16 -45 -18 -62 -3 -16 -8 -31 -12 -33 -5 -1 -6
-14 -3 -29 4 -20 2 -24 -9 -18 -8 5 -11 5 -7 0 4 -4 3 -14 -3 -21 -6 -8 -9
-20 -6 -29 4 -8 2 -17 -2 -20 -5 -2 -12 -26 -16 -52 -4 -27 -12 -54 -17 -61
-8 -9 -6 -18 7 -32 15 -17 16 -22 4 -36 -7 -9 -13 -28 -14 -42 0 -19 -5 -27
-17 -26 -10 1 -14 -4 -11 -12 3 -8 9 -12 13 -9 4 3 10 -2 13 -10 4 -10 1 -12
-11 -7 -16 6 -16 4 1 -21 20 -31 16 -35 -9 -10 -13 13 -16 14 -12 3 8 -23 -12
-83 -34 -101 -10 -10 -18 -23 -17 -31 1 -7 -2 -24 -8 -38 -39 -94 -130 -475
-116 -490 3 -3 11 3 18 13 13 17 14 17 20 -3 7 -22 7 -21 28 6 12 15 33 41 47
58 14 17 34 45 45 61 10 17 24 34 32 38 7 4 13 13 13 19 0 6 11 21 25 34 14
13 25 32 25 42 0 11 8 26 18 33 14 11 15 11 5 -1 -7 -8 -13 -19 -13 -24 0 -6
7 0 16 12 11 16 13 26 5 35 -7 9 -6 21 3 39 8 15 12 29 9 32 -3 2 0 13 6 23
10 17 10 17 12 -2 1 -11 1 -22 1 -25 0 -3 8 -6 18 -6 17 0 18 2 4 17 -12 14
-12 20 -1 42 13 24 15 25 34 12 18 -13 22 -12 36 3 15 16 15 18 -2 18 -12 0
-17 -5 -13 -16 4 -12 2 -12 -13 2 -14 13 -16 20 -7 31 7 8 9 17 5 20 -3 4 1 7
10 7 9 0 21 9 27 20 13 24 36 26 48 4 8 -15 10 -15 15 0 4 10 3 15 -2 12 -5
-3 -11 4 -14 15 -4 15 -2 19 9 15 8 -3 14 -1 14 4 0 6 9 10 20 10 24 0 55 44
44 62 -6 11 -5 11 8 0 13 -10 17 -10 22 3 3 8 0 15 -6 15 -6 0 -8 3 -4 8 4 4
11 7 14 7 12 0 52 32 47 37 -2 2 16 26 40 52 46 48 55 62 33 51 -7 -4 -6 -1 2
7 8 7 16 19 18 27 3 12 1 12 -14 0 -12 -9 -15 -9 -10 -1 4 7 2 12 -7 12 -7 0
-22 18 -33 40 -22 45 -44 53 -44 14 0 -24 -2 -25 -32 -19 -42 9 -48 13 -48 31
0 9 -11 14 -31 14 l-32 0 6 54 c4 40 1 60 -10 76 -9 12 -12 25 -7 29 16 11 15
32 -2 48 -13 13 -17 14 -24 3 -9 -14 -60 -6 -60 10 0 5 -6 7 -14 4 -8 -3 -20
4 -28 15 -14 19 -14 19 -27 -12z m149 -57 c0 -5 -4 -10 -10 -10 -5 0 -10 5
-10 10 0 6 5 10 10 10 6 0 10 -4 10 -10z m-209 -231 c-9 -22 -10 -22 -10 -3
-1 11 2 24 6 27 12 12 14 0 4 -24z m409 -106 c0 -5 -7 -16 -14 -26 -13 -16
-14 -16 -20 -1 -4 9 -4 19 -1 22 3 3 5 0 5 -7 0 -7 5 -9 10 -6 6 4 8 11 5 16
-4 5 -1 9 4 9 6 0 11 -3 11 -7z m-80 -78 c0 -1 -10 -10 -22 -21 -14 -12 -18
-13 -10 -3 6 9 10 18 7 21 -3 2 2 5 10 5 8 0 15 -1 15 -2z"/>
<path d="M9091 6834 c0 -11 3 -14 6 -6 3 7 2 16 -1 19 -3 4 -6 -2 -5 -13z"/>
<path d="M9217 6438 c-7 -20 -7 -28 0 -30 3 -2 8 7 9 20 4 24 -1 30 -9 10z"/>
</g>
</svg>
